<svg width="78" height="78" viewBox="0 0 78 78" fill="none" xmlns="http://www.w3.org/2000/svg">
<circle cx="39" cy="39" r="39" fill="#0C0D0C"/>
<path d="M7 53H35.481V48.5789H17.3704L35.481 29.8794V25L7 53Z" fill="#00FF00"/>
<path fill-rule="evenodd" clip-rule="evenodd" d="M45 53L52.4051 25H56.1341L71.5823 39L48.6193 53H45ZM66.3971 39L54.9156 28.6842L49.7304 48.5789L66.3971 39Z" fill="#00FF00"/>
<path d="M7 53H35.481V48.5789H17.3704L35.481 29.8794V25L7 53Z" stroke="#00FF00" stroke-width="2"/>
<path fill-rule="evenodd" clip-rule="evenodd" d="M45 53L52.4051 25H56.1341L71.5823 39L48.6193 53H45ZM66.3971 39L54.9156 28.6842L49.7304 48.5789L66.3971 39Z" stroke="#00FF00" stroke-width="2"/>
</svg>
