<svg width="27" height="30" viewBox="0 0 27 30" fill="none" xmlns="http://www.w3.org/2000/svg">
<path d="M9.97436 24.6325C3.5641 26.5556 3.5641 21.4274 1 20.7864M18.9487 28.4787V23.5171C18.9968 22.9058 18.9142 22.2912 18.7064 21.7143C18.4986 21.1374 18.1704 20.6113 17.7436 20.171C21.7692 19.7223 26 18.1966 26 11.1966C25.9997 9.40665 25.3111 7.68533 24.0769 6.38892C24.6614 4.82291 24.62 3.09194 23.9615 1.55559C23.9615 1.55559 22.4487 1.10687 18.9487 3.45303C16.0103 2.65664 12.9128 2.65664 9.97436 3.45303C6.47436 1.10687 4.96154 1.55559 4.96154 1.55559C4.30305 3.09194 4.26172 4.82291 4.84615 6.38892C3.60273 7.69495 2.91349 9.43183 2.92308 11.2351C2.92308 18.1838 7.15385 19.7094 11.1795 20.2094C10.7577 20.6453 10.4324 21.1651 10.2248 21.735C10.0171 22.3049 9.93181 22.9121 9.97436 23.5171V28.4787" stroke="#00FF00" stroke-width="2" stroke-linecap="round" stroke-linejoin="round"/>
</svg>
