<svg width="18" height="21" viewBox="0 0 18 21" fill="none" xmlns="http://www.w3.org/2000/svg">
<path d="M0.896155 15.3733L1.63861 15.802L9.90987 1.47618L9.16741 1.04751L0.896155 15.3733Z" fill="#85AD85"/>
<path d="M17.2687 14.2288H0.726135V15.0861H17.2687V14.2288Z" fill="#85AD85"/>
<path d="M1.05346 14.7105L9.32782 19.4878L9.75649 18.7453L1.48213 13.968L1.05346 14.7105Z" fill="#85AD85"/>
<path d="M8.24145 2.25952L16.5158 7.03687L16.9445 6.29441L8.67012 1.51707L8.24145 2.25952Z" fill="#85AD85"/>
<path d="M1.05577 6.29099L1.48444 7.03345L9.75879 2.25611L9.33012 1.51365L1.05577 6.29099Z" fill="#85AD85"/>
<path d="M8.09196 1.47618L16.3632 15.802L17.1057 15.3733L8.83442 1.04751L8.09196 1.47618Z" fill="#85AD85"/>
<path d="M2.23942 5.72266H1.38208V15.2773H2.23942V5.72266Z" fill="#85AD85"/>
<path d="M16.6179 5.72266H15.7606V15.2773H16.6179V5.72266Z" fill="#85AD85"/>
<path d="M8.80744 18.4765L9.18188 19.125L16.3783 14.97L16.0039 14.3215L8.80744 18.4765Z" fill="#85AD85"/>
<path d="M17.7542 15.556C17.2584 16.4185 16.1531 16.7129 15.2906 16.2171C14.4281 15.7213 14.1337 14.6161 14.6295 13.7536C15.1253 12.8911 16.2306 12.5967 17.0931 13.0925C17.9608 13.5935 18.2551 14.6935 17.7542 15.556Z" fill="#85AD85"/>
<path d="M3.36532 7.24623C2.86951 8.10873 1.76426 8.40312 0.901759 7.90731C0.0392551 7.4115 -0.255132 6.30626 0.240678 5.44375C0.736489 4.58125 1.84173 4.28686 2.70424 4.78267C3.56674 5.28365 3.86113 6.38373 3.36532 7.24623Z" fill="#85AD85"/>
<path d="M0.245866 15.556C-0.249944 14.6935 0.044443 13.5935 0.906947 13.0925C1.76945 12.5967 2.86953 12.8911 3.37051 13.7536C3.86632 14.6161 3.57193 15.7162 2.70943 16.2171C1.84176 16.7129 0.741677 16.4185 0.245866 15.556Z" fill="#85AD85"/>
<path d="M14.6347 7.24623C14.1388 6.38373 14.4332 5.28365 15.2957 4.78267C16.1582 4.28686 17.2583 4.58125 17.7593 5.44375C18.2551 6.30626 17.9607 7.40634 17.0982 7.90731C16.2357 8.40312 15.1305 8.10873 14.6347 7.24623Z" fill="#85AD85"/>
<path d="M8.99999 20.6123C8.0032 20.6123 7.19751 19.8066 7.19751 18.8098C7.19751 17.813 8.0032 17.0073 8.99999 17.0073C9.99677 17.0073 10.8025 17.813 10.8025 18.8098C10.8025 19.8014 9.99677 20.6123 8.99999 20.6123Z" fill="#85AD85"/>
<path d="M8.99999 3.99241C8.0032 3.99241 7.19751 3.18672 7.19751 2.18993C7.19751 1.19314 8.0032 0.387451 8.99999 0.387451C9.99677 0.387451 10.8025 1.19314 10.8025 2.18993C10.8025 3.18672 9.99677 3.99241 8.99999 3.99241Z" fill="#85AD85"/>
</svg>
