<svg width="18" height="19" viewBox="0 0 18 19" fill="none" xmlns="http://www.w3.org/2000/svg">
<path d="M9 18.5C13.9706 18.5 18 14.4706 18 9.5C18 4.52944 13.9706 0.5 9 0.5C4.02944 0.5 0 4.52944 0 9.5C0 14.4706 4.02944 18.5 9 18.5Z" fill="#85AD85"/>
<path d="M7.06661 5.54071C5.23813 5.20771 3.79237 5.55625 3.21616 6.55427C2.7862 7.29902 2.9091 8.28642 3.51428 9.34188C3.52623 9.3638 3.54244 9.38311 3.56195 9.39869C3.58147 9.41426 3.60389 9.42578 3.62792 9.43257C3.65194 9.43936 3.67708 9.44129 3.70186 9.43824C3.72664 9.43518 3.75056 9.42721 3.77222 9.41479C3.79388 9.40237 3.81284 9.38575 3.82799 9.3659C3.84314 9.34606 3.85417 9.32339 3.86044 9.29922C3.86671 9.27505 3.86809 9.24988 3.86451 9.22517C3.86092 9.20046 3.85243 9.17672 3.83955 9.15534C3.29448 8.20457 3.18838 7.35245 3.54093 6.74179C4.01962 5.91274 5.30915 5.60181 6.99939 5.90964C7.04796 5.91773 7.09776 5.90639 7.13804 5.87807C7.17832 5.84975 7.20585 5.80672 7.21467 5.75828C7.2235 5.70984 7.21292 5.65987 7.18522 5.61916C7.15751 5.57845 7.11491 5.55028 7.06661 5.54071ZM4.46512 10.6248C5.20445 11.4373 6.16499 12.1994 7.26046 12.8318C9.91286 14.3632 12.7366 14.7725 14.1282 13.8236C14.149 13.8099 14.1669 13.7922 14.1808 13.7716C14.1948 13.7509 14.2044 13.7277 14.2092 13.7033C14.2141 13.6789 14.214 13.6537 14.209 13.6293C14.204 13.6049 14.1943 13.5818 14.1802 13.5612C14.1662 13.5406 14.1482 13.523 14.1273 13.5095C14.1064 13.496 14.083 13.4867 14.0585 13.4823C14.034 13.4779 14.0089 13.4784 13.9846 13.4838C13.9603 13.4892 13.9373 13.4994 13.9169 13.5138C12.6714 14.363 9.98915 13.9742 7.44798 12.5071C6.38528 11.8935 5.45512 11.1555 4.7425 10.3724C4.72596 10.3541 4.70596 10.3392 4.68365 10.3286C4.66134 10.318 4.63716 10.312 4.61251 10.3107C4.58785 10.3095 4.5632 10.3132 4.53996 10.3216C4.51672 10.3299 4.49536 10.3427 4.47711 10.3594C4.45885 10.376 4.44405 10.396 4.43356 10.4184C4.42307 10.4407 4.4171 10.4649 4.41598 10.4896C4.41487 10.5142 4.41864 10.5389 4.42707 10.5621C4.4355 10.5853 4.44843 10.6066 4.46512 10.6248Z" fill="#0C0D0C"/>
<path d="M13.6844 10.3967C14.8817 8.98232 15.2997 7.55976 14.7247 6.56385C14.3016 5.83099 13.4071 5.44406 12.2184 5.42859C12.1691 5.42866 12.1218 5.44812 12.0868 5.48276C12.0518 5.51739 12.0318 5.56442 12.0311 5.61369C12.0305 5.66295 12.0493 5.71048 12.0834 5.74601C12.1175 5.78154 12.1643 5.80222 12.2135 5.80357C13.2826 5.81749 14.0532 6.15084 14.4 6.75138C14.8775 7.5786 14.5047 8.84718 13.3981 10.1544C13.3819 10.1732 13.3696 10.195 13.3618 10.2185C13.354 10.2421 13.351 10.2669 13.3529 10.2917C13.3549 10.3164 13.3617 10.3405 13.373 10.3626C13.3843 10.3847 13.3998 10.4043 13.4187 10.4203C13.4377 10.4363 13.4596 10.4485 13.4832 10.4559C13.5069 10.4634 13.5318 10.4662 13.5565 10.464C13.5812 10.4618 13.6052 10.4547 13.6272 10.4432C13.6491 10.4316 13.6686 10.4158 13.6844 10.3967ZM10.6074 5.60317C9.52491 5.83514 8.37263 6.28865 7.26605 6.92751C4.52794 8.50835 2.7418 10.8394 2.98986 12.5297C2.99317 12.5543 3.00132 12.578 3.01386 12.5994C3.02639 12.6208 3.04305 12.6395 3.06287 12.6544C3.08269 12.6694 3.10528 12.6802 3.12933 12.6864C3.15338 12.6925 3.1784 12.6938 3.20296 12.6902C3.22751 12.6866 3.25111 12.6782 3.27237 12.6654C3.29364 12.6526 3.31215 12.6357 3.32685 12.6157C3.34154 12.5957 3.35211 12.573 3.35796 12.5488C3.3638 12.5247 3.3648 12.4997 3.3609 12.4752C3.14061 10.9744 4.83373 8.76485 7.45358 7.25228C8.52704 6.63248 9.64276 6.19338 10.686 5.96985C10.7104 5.96504 10.7336 5.95542 10.7543 5.94154C10.7749 5.92767 10.7926 5.90982 10.8063 5.88904C10.82 5.86826 10.8294 5.84497 10.834 5.82051C10.8386 5.79606 10.8383 5.77093 10.8331 5.7466C10.8279 5.72226 10.8179 5.69921 10.8037 5.67878C10.7894 5.65836 10.7713 5.64096 10.7503 5.62761C10.7293 5.61426 10.7059 5.60523 10.6813 5.60103C10.6568 5.59684 10.6317 5.59757 10.6074 5.60317Z" fill="#0C0D0C"/>
<path d="M6.17148 13.7014C6.79754 15.4494 7.82164 16.5257 8.97322 16.5257C9.8131 16.5257 10.5901 15.9531 11.1961 14.9452C11.2092 14.9241 11.218 14.9006 11.2219 14.876C11.2259 14.8515 11.2249 14.8264 11.2191 14.8023C11.2132 14.7781 11.2027 14.7553 11.188 14.7353C11.1732 14.7153 11.1547 14.6983 11.1334 14.6855C11.1121 14.6727 11.0885 14.6643 11.0639 14.6607C11.0393 14.6571 11.0142 14.6584 10.9901 14.6646C10.9661 14.6708 10.9435 14.6817 10.9236 14.6967C10.9038 14.7117 10.8872 14.7305 10.8747 14.752C10.3301 15.6578 9.66123 16.1506 8.97322 16.1506C8.01662 16.1506 7.10319 15.1907 6.52459 13.5751C6.51666 13.5514 6.5041 13.5296 6.48763 13.5109C6.47115 13.4921 6.45111 13.4769 6.42867 13.466C6.40622 13.4551 6.38183 13.4488 6.35692 13.4474C6.33201 13.4461 6.30707 13.4497 6.28358 13.4581C6.26009 13.4665 6.23852 13.4795 6.22012 13.4964C6.20172 13.5132 6.18687 13.5336 6.17644 13.5562C6.166 13.5789 6.1602 13.6034 6.15936 13.6283C6.15852 13.6533 6.16266 13.6781 6.17155 13.7014H6.17148ZM11.8894 13.3595C12.2136 12.3239 12.3876 11.1293 12.3876 9.88445C12.3876 6.77812 11.3004 4.10034 9.75179 3.41275C9.70655 3.3938 9.65569 3.39333 9.61011 3.41144C9.56453 3.42955 9.52786 3.4648 9.50795 3.50962C9.48805 3.55445 9.4865 3.60529 9.50364 3.65124C9.52078 3.6972 9.55524 3.73461 9.59963 3.75546C10.9808 4.36879 12.0125 6.9101 12.0125 9.88445C12.0125 11.0922 11.844 12.2491 11.5316 13.2475C11.5238 13.2711 11.5209 13.296 11.5228 13.3208C11.5248 13.3456 11.5316 13.3697 11.543 13.3918C11.5544 13.4139 11.57 13.4335 11.589 13.4495C11.608 13.4655 11.63 13.4776 11.6537 13.485C11.6775 13.4924 11.7024 13.4951 11.7272 13.4928C11.7519 13.4905 11.7759 13.4833 11.7979 13.4716C11.8198 13.4599 11.8392 13.444 11.8549 13.4247C11.8707 13.4055 11.8824 13.3833 11.8895 13.3595H11.8894ZM15.4208 13.1759C15.4208 12.6802 15.019 12.2785 14.5234 12.2785C14.0278 12.2785 13.626 12.6802 13.626 13.1759C13.626 13.6715 14.0278 14.0733 14.5234 14.0733C15.019 14.0733 15.4208 13.6715 15.4208 13.1759ZM15.0458 13.1759C15.0458 13.2445 15.0323 13.3124 15.0061 13.3758C14.9798 13.4392 14.9413 13.4967 14.8928 13.5453C14.8443 13.5938 14.7867 13.6323 14.7233 13.6585C14.6599 13.6848 14.592 13.6983 14.5234 13.6983C14.4548 13.6983 14.3869 13.6848 14.3235 13.6585C14.2601 13.6323 14.2025 13.5938 14.154 13.5453C14.1055 13.4967 14.067 13.4392 14.0408 13.3758C14.0145 13.3124 14.001 13.2445 14.001 13.1759C14.001 13.0373 14.056 12.9044 14.154 12.8064C14.252 12.7085 14.3849 12.6534 14.5234 12.6534C14.662 12.6534 14.7948 12.7085 14.8928 12.8064C14.9908 12.9044 15.0458 13.0373 15.0458 13.1759ZM3.41009 14.0733C3.9058 14.0733 4.30756 13.6715 4.30756 13.1759C4.30756 12.6802 3.90573 12.2785 3.41009 12.2785C2.91453 12.2785 2.5127 12.6802 2.5127 13.1759C2.5127 13.6715 2.91453 14.0733 3.41009 14.0733ZM3.41009 13.6983C3.27154 13.6983 3.13866 13.6432 3.04069 13.5453C2.94271 13.4473 2.88767 13.3144 2.88767 13.1759C2.88767 13.0373 2.94271 12.9044 3.04069 12.8064C3.13866 12.7085 3.27154 12.6534 3.41009 12.6534C3.54865 12.6534 3.68153 12.7085 3.7795 12.8064C3.87747 12.9044 3.93252 13.0373 3.93252 13.1759C3.93252 13.3144 3.87747 13.4473 3.7795 13.5453C3.68153 13.6432 3.54865 13.6983 3.41009 13.6983Z" fill="#0C0D0C"/>
<path d="M8.9732 4.32812C9.46884 4.32812 9.8706 3.92636 9.8706 3.43072C9.8706 2.93509 9.46884 2.53333 8.9732 2.53333C8.47757 2.53333 8.07581 2.93509 8.07581 3.43072C8.07581 3.92636 8.47757 4.32812 8.9732 4.32812ZM8.9732 3.95315C8.83465 3.95315 8.70177 3.8981 8.6038 3.80013C8.50582 3.70216 8.45078 3.56928 8.45078 3.43072C8.45078 3.29217 8.50582 3.15929 8.6038 3.06132C8.70177 2.96334 8.83465 2.9083 8.9732 2.9083C9.11176 2.9083 9.24464 2.96334 9.34261 3.06132C9.44059 3.15929 9.49563 3.29217 9.49563 3.43072C9.49563 3.56928 9.44059 3.70216 9.34261 3.80013C9.24464 3.8981 9.11176 3.95315 8.9732 3.95315ZM9.11024 10.5191C8.75974 10.5948 8.41443 10.372 8.33856 10.0215C8.30223 9.85322 8.33424 9.67737 8.42754 9.53265C8.52084 9.38792 8.66779 9.28618 8.83609 9.24979C9.1866 9.17406 9.53191 9.39681 9.60785 9.74732C9.68357 10.0978 9.46082 10.4432 9.11024 10.5191Z" fill="#0C0D0C"/>
</svg>
