<svg width="18" height="18" viewBox="0 0 18 18" fill="none" xmlns="http://www.w3.org/2000/svg">
<g clip-path="url(#clip0_57_529)">
<path d="M8.78361 0.0123027C8.74996 0.013832 8.62304 0.0245366 8.5007 0.0337121C6.97146 0.146876 5.42081 0.712693 4.15002 1.62106C3.72948 1.92079 3.39763 2.20217 3.02756 2.57225C0.90039 4.70094 0.0241375 7.74718 0.689356 10.7063C0.96156 11.9205 1.54267 13.1423 2.31341 14.1241C3.52303 15.6671 5.18072 16.7544 7.04028 17.2254C7.79725 17.4181 8.42577 17.4961 9.21944 17.4961C10.0024 17.4961 10.5789 17.4257 11.3252 17.2437C12.3972 16.9807 13.3392 16.5479 14.2812 15.8888C15.1835 15.2557 16.023 14.3688 16.6255 13.413C17.4024 12.1774 17.8443 10.8133 17.9529 9.31618C17.9759 9.00116 17.9621 8.22125 17.9284 7.90011C17.8612 7.26241 17.6899 6.42133 17.5905 6.24547C17.5507 6.17666 17.4391 6.08796 17.3565 6.05891C17.3275 6.04973 17.2632 6.04208 17.2112 6.04208C16.9818 6.04208 16.7892 6.23324 16.7892 6.45804C16.7892 6.51156 16.8136 6.64002 16.8488 6.77918C17.1516 7.95669 17.1761 9.25042 16.9176 10.431C16.5873 11.9434 15.8502 13.2769 14.7385 14.3703C14.22 14.8795 13.72 15.2557 13.0731 15.6258C11.5638 16.4898 9.68739 16.8171 7.92723 16.5235C6.59068 16.3017 5.42999 15.7879 4.32741 14.93C3.809 14.5263 3.17742 13.8611 2.78594 13.3044C2.11002 12.3441 1.68489 11.3317 1.46468 10.1557C1.35304 9.55627 1.31481 8.76107 1.36681 8.1142C1.44633 7.13243 1.69254 6.22101 2.11002 5.35699C2.3027 4.9548 2.42198 4.74529 2.6529 4.39815C3.1239 3.68553 3.74783 3.01878 4.43752 2.48967C5.24648 1.86727 6.20684 1.39473 7.17791 1.14088C7.70244 1.00325 8.12145 0.934433 8.65362 0.896202C10.5789 0.75857 12.4507 1.31215 13.9754 2.47285C14.0885 2.55848 14.2078 2.65177 14.2399 2.68082L14.298 2.73129L14.2751 2.79551C14.1573 3.12583 14.2445 3.53719 14.4922 3.82469C14.6192 3.9715 14.8486 4.10913 15.0428 4.15501C15.1758 4.18712 15.4067 4.18712 15.5413 4.15501C15.8823 4.07396 16.2004 3.78187 16.3013 3.45767C16.4145 3.09524 16.3487 2.7374 16.1163 2.44685C15.8594 2.12571 15.4174 1.98196 15.0091 2.08901L14.9204 2.11195L14.795 2.00796C14.2858 1.5813 13.6695 1.18676 13.0211 0.873263C11.969 0.364027 10.9123 0.0902938 9.7088 0.0168904C9.47788 0.00312732 8.93194 6.88534e-05 8.78361 0.0123027V0.0123027Z" fill="#85AD85"/>
<path d="M7.8783 5.04348C7.7162 5.46249 7.36448 6.38003 7.0938 7.08195C6.82313 7.78387 6.26802 9.22594 5.85971 10.2857C5.45293 11.3455 5.11497 12.2171 5.11191 12.2232C5.10733 12.2309 5.53704 12.2355 6.06463 12.2355H7.02652L7.0831 12.078C7.11521 11.9923 7.22838 11.6895 7.33389 11.4051L7.52658 10.8898H8.97018C10.1202 10.8898 10.4138 10.8852 10.4092 10.8699C10.3939 10.8286 10.1584 10.1557 10.033 9.79635L9.89843 9.41404L8.94265 9.40639L7.98841 9.39875L8.60928 7.68753C8.98241 6.65988 9.23474 5.98702 9.23932 6.00231C9.24544 6.01607 9.49318 6.72105 9.79138 7.56825C10.0896 8.41545 10.582 9.81011 10.8848 10.668L11.4338 12.2278L12.3911 12.2324C12.9171 12.234 13.3484 12.2324 13.3484 12.2294C13.3484 12.2263 13.2245 11.9006 13.0716 11.5076C12.9187 11.113 12.5914 10.2643 12.3437 9.62048C12.0959 8.97668 11.8176 8.25488 11.7243 8.01479C11.6326 7.7747 11.472 7.35874 11.368 7.0896C11.264 6.82045 10.9934 6.11547 10.764 5.52213C10.5346 4.92879 10.3343 4.40732 10.3174 4.36297L10.2884 4.28345H8.17039L7.8783 5.04348Z" fill="#85AD85"/>
</g>
<defs>
<clipPath id="clip0_57_529">
<rect width="18" height="17.496" fill="white"/>
</clipPath>
</defs>
</svg>
