<svg width="18" height="19" viewBox="0 0 18 19" fill="none" xmlns="http://www.w3.org/2000/svg">
<g clip-path="url(#clip0_25_2796)">
<path d="M16.2422 0.5H1.75781C0.786999 0.5 0 1.287 0 2.25781V16.7422C0 17.713 0.786999 18.5 1.75781 18.5H16.2422C17.213 18.5 18 17.713 18 16.7422V2.25781C18 1.287 17.213 0.5 16.2422 0.5Z" fill="#85AD85"/>
<path fill-rule="evenodd" clip-rule="evenodd" d="M11.1445 14.8085V16.5663C11.4293 16.714 11.7773 16.823 12.1641 16.8968C12.5508 16.9706 12.9727 17.0058 13.3945 17.0058C13.8164 17.0058 14.2031 16.9671 14.5898 16.8862C14.9766 16.8054 15.293 16.6718 15.5742 16.4995C15.859 16.3132 16.1016 16.0776 16.2422 15.7612C16.3828 15.4448 16.4918 15.0933 16.4918 14.6362C16.4918 14.3163 16.4426 14.0386 16.3477 13.7925C16.2527 13.5464 16.1156 13.3355 15.9258 13.1597C15.7465 12.9733 15.5391 12.8081 15.293 12.6675C15.0469 12.5269 14.7656 12.3792 14.4492 12.2456C14.2172 12.1507 14.0273 12.0593 13.8164 11.9679C13.6336 11.8765 13.4754 11.7851 13.3594 11.6937C13.2293 11.5987 13.1309 11.5003 13.0605 11.3983C12.9902 11.2929 12.9551 11.1769 12.9551 11.0468C12.9551 10.9273 12.9864 10.8183 13.05 10.7198C13.1136 10.6214 13.2012 10.5405 13.3137 10.4702C13.4262 10.3999 13.5668 10.3472 13.7355 10.3085C13.9008 10.2698 14.0836 10.2523 14.298 10.2523C14.4457 10.2523 14.6004 10.2632 14.7551 10.2853C14.9168 10.3075 15.082 10.3416 15.2473 10.3873C15.4125 10.433 15.5742 10.4892 15.7395 10.5595C15.8941 10.6298 16.0383 10.7107 16.1613 10.8021V9.14976C15.8941 9.0478 15.5988 8.97046 15.2824 8.92124C14.966 8.87202 14.6145 8.84741 14.1926 8.84741C13.7707 8.84741 13.384 8.89312 12.9973 8.98101C12.6105 9.0689 12.2941 9.20952 12.0129 9.40288C11.7281 9.59272 11.5207 9.82476 11.3449 10.1412C11.1797 10.4365 11.0988 10.774 11.0988 11.1958C11.0988 11.7232 11.25 12.1802 11.5559 12.5318C11.8582 12.9185 12.3293 13.1998 12.927 13.481C13.1695 13.5794 13.384 13.6779 13.5949 13.7728C13.8059 13.8677 13.9816 13.9662 14.1223 14.0681C14.2734 14.1701 14.393 14.2826 14.4738 14.4021C14.5617 14.5216 14.6074 14.6623 14.6074 14.824C14.6074 14.9365 14.58 15.0419 14.5266 15.1404C14.4731 15.2388 14.3895 15.3232 14.277 15.3935C14.1645 15.4638 14.0273 15.5201 13.8551 15.5623C13.6898 15.6009 13.5035 15.622 13.2574 15.622C12.8707 15.622 12.484 15.5552 12.1324 15.4216C11.7457 15.288 11.3941 15.0876 11.0777 14.824L11.1445 14.8085ZM8.19141 10.4843H10.4414V9.04288H4.14844V10.4843H6.39844V16.9179H8.19141V10.4843Z" fill="#0C0D0C"/>
</g>
<defs>
<clipPath id="clip0_25_2796">
<rect width="18" height="18" fill="white" transform="translate(0 0.5)"/>
</clipPath>
</defs>
</svg>
