<svg width="18" height="19" viewBox="0 0 18 19" fill="none" xmlns="http://www.w3.org/2000/svg">
<path fill-rule="evenodd" clip-rule="evenodd" d="M9 18.5C13.9706 18.5 18 14.4706 18 9.5C18 4.52944 13.9706 0.5 9 0.5C4.02944 0.5 0 4.52944 0 9.5C0 14.4706 4.02944 18.5 9 18.5ZM14.6383 13.0999C14.9221 13.5268 15.2385 13.6513 15.75 13.521L12.9305 9.76956C12.7687 9.55716 12.7446 9.40654 12.9204 9.18653L14.3969 7.26115L15.4867 5.81413C15.0016 5.67259 14.711 5.81856 14.4408 6.20281L12.3314 9.01944L10.2375 6.18739C9.94087 5.75382 9.60685 5.70597 9.12349 5.80008L11.9342 9.46611L8.91519 13.5246C9.41796 13.6606 9.70051 13.4935 9.96988 13.1092L12.3275 9.91543L12.6194 10.3027L14.6383 13.0999ZM1.93799 8.18185L1.69109 9.3983V9.39873C1.69109 9.62645 1.68982 9.85406 1.6875 10.0818C1.69595 10.1245 1.70529 10.1671 1.71467 10.2099C1.73457 10.3006 1.75463 10.3921 1.7666 10.4866C1.87819 11.3281 2.12688 12.1149 2.72901 12.736C3.73961 13.8062 5.66105 14.0553 7.00704 13.2852C7.90796 12.7707 8.33426 11.9487 8.52316 10.9646C8.15307 10.8519 7.95457 10.9136 7.83455 11.3078C7.59809 12.0946 7.12569 12.7236 6.32371 12.9934C4.03735 13.7617 2.24395 12.2557 2.33793 9.76038H8.59751C8.65246 8.37409 8.37645 7.13651 7.26597 6.26165C5.36573 4.77417 2.61035 5.77452 1.93799 8.18185ZM8.00594 9.2311H2.34932H2.34921C2.4222 7.37216 3.63077 6.12106 5.31384 6.13427C6.84715 6.14515 7.96902 7.42676 8.00594 9.2311Z" fill="#85AD85"/>
</svg>
