<svg width="18" height="21" viewBox="0 0 18 21" fill="none" xmlns="http://www.w3.org/2000/svg">
<path fill-rule="evenodd" clip-rule="evenodd" d="M0.482356 4.9975L8.51449 0.341555L8.51835 0.340912C8.8161 0.166636 9.18781 0.166636 9.4862 0.340912L17.5145 4.99685C17.8161 5.17113 18 5.49267 18 5.84122V15.1595C18 15.5042 17.8161 15.8258 17.5177 16L9.48555 20.6592C9.18395 20.8335 8.8161 20.8335 8.51771 20.6592L0.482356 15.9968C0.183964 15.8264 4.14801e-05 15.5049 4.14801e-05 15.1563V5.84187C-0.00317395 5.49331 0.180749 5.17177 0.482356 4.9975ZM8.32425 2.31358C8.52683 2.19782 8.7615 2.14025 8.99623 2.14025C9.23096 2.14025 9.46563 2.19782 9.6682 2.31358L16.0488 5.99876C16.4604 6.2367 16.717 6.68078 16.717 7.1631V13.8313C16.717 14.3137 16.4604 14.7577 16.0488 14.9957L9.6682 18.6809C9.46242 18.7966 9.23166 18.8605 8.99372 18.8605C8.76221 18.8605 8.53004 18.7966 8.32425 18.6809L6.19655 17.4198C5.875 17.2397 6.03588 17.1756 6.13877 17.1435C6.56321 16.9956 6.64681 16.9636 7.1034 16.7064C7.14841 16.6807 7.21162 16.6868 7.25663 16.7189L8.897 17.6899C8.95488 17.722 9.03883 17.722 9.09671 17.6899L15.4761 14.0047C15.5339 13.9725 15.5728 13.9021 15.5728 13.8313V7.15682C15.5728 7.08608 15.5341 7.02081 15.4698 6.98223L9.09671 3.30458C9.0324 3.266 8.95488 3.266 8.897 3.30458L2.52392 6.98223C2.45962 7.02081 2.42093 7.08593 2.42093 7.1631V13.8313C2.42093 13.9021 2.45962 13.9725 2.52392 14.0047L4.27357 15.0145C5.21891 15.484 5.80341 14.9311 5.80341 14.3652V7.48464C5.80341 7.38175 5.88123 7.29749 5.99056 7.29749H6.79441C6.89731 7.29749 6.98031 7.38175 6.98031 7.48464V14.3714C6.98031 15.6319 6.29256 16.3585 5.08999 16.3585H5.08847C4.72263 16.3585 4.43337 16.3585 3.6242 15.9603L1.95118 14.9957C1.5396 14.7577 1.28297 14.3137 1.28297 13.8313V7.15682C1.28297 6.68093 1.5396 6.23042 1.95118 5.99248L8.32425 2.31358ZM7.80426 9.34607C7.80426 8.0599 8.89077 7.2887 10.7107 7.2887C12.7557 7.2887 13.7649 8.00172 13.8935 9.5194C13.8999 9.57728 13.8804 9.62918 13.8483 9.66133C13.8097 9.69992 13.7653 9.72539 13.7139 9.72539H12.8836C12.7936 9.72539 12.7233 9.66078 12.704 9.57718C12.5047 8.69615 12.0162 8.4141 10.7107 8.4141C9.24447 8.4141 9.07033 8.92128 9.07033 9.30713C9.07033 9.77016 9.26994 9.90525 11.2571 10.1625C13.2121 10.4262 14.1447 10.7934 14.1447 12.1696C14.1447 13.5587 12.9875 14.3551 10.9682 14.3551C8.1772 14.3551 7.59199 13.0765 7.59199 12.0026C7.59199 11.9061 7.66871 11.8217 7.7716 11.8217H8.60184C8.69187 11.8217 8.76859 11.8862 8.78145 11.9762C8.90364 12.8122 9.27688 13.2372 10.9682 13.2372C12.3122 13.2372 12.8836 12.9348 12.8836 12.2274C12.8836 11.8158 12.7229 11.5062 10.6328 11.3004C8.88364 11.1268 7.80426 10.7416 7.80426 9.34607Z" fill="#85AD85"/>
</svg>
