<svg width="18" height="19" viewBox="0 0 18 19" fill="none" xmlns="http://www.w3.org/2000/svg">
<path fill-rule="evenodd" clip-rule="evenodd" d="M9 18.5C13.9705 18.5 18 14.4706 18 9.5C18 4.52942 13.9705 0.5 9 0.5C4.02954 0.5 0 4.52942 0 9.5C0 14.4706 4.02954 18.5 9 18.5ZM5.69775 3.63379C5.92749 3.51404 6.24365 3.48206 6.66968 3.60107C6.91089 3.66833 7.17529 3.78137 7.45679 3.9408C7.67627 4.06494 7.90625 4.21729 8.1438 4.39832L8.21362 4.45203C7.74878 4.9126 7.29053 5.44373 6.85376 6.03271C6.22363 6.10791 5.62378 6.2157 5.06567 6.35217C5.05005 6.24023 5.03711 6.13049 5.02686 6.02307C4.96338 5.35986 5.00781 4.81067 5.13818 4.39941C5.26733 3.99097 5.46777 3.75366 5.69775 3.63379ZM8.80591 3.59351C8.87036 3.6427 8.9353 3.69348 9 3.74573C9.0647 3.69348 9.12939 3.6427 9.19409 3.59351C9.8042 3.12891 10.429 2.78394 11.033 2.61536C11.6399 2.4458 12.2632 2.44617 12.8103 2.73132C13.3574 3.01648 13.6982 3.51855 13.8823 4.10046C14.0654 4.67932 14.1064 5.37134 14.0354 6.11682C14.0186 6.29163 13.9956 6.4707 13.9666 6.65356C14.1475 6.71594 14.322 6.78186 14.4897 6.85095C15.2048 7.14587 15.8176 7.51025 16.2595 7.94092C16.7034 8.3739 17 8.90125 17 9.5C17 10.0986 16.7034 10.6261 16.2595 11.059C15.8176 11.4897 15.2048 11.854 14.4897 12.149C14.322 12.2181 14.1475 12.2839 13.9666 12.3464C13.9958 12.5293 14.0186 12.7084 14.0354 12.8832C14.1064 13.6287 14.0654 14.3207 13.8823 14.8997C13.6982 15.4814 13.3574 15.9835 12.8103 16.2687C12.2632 16.5538 11.6401 16.5542 11.033 16.3848C10.429 16.2161 9.8042 15.8711 9.19409 15.4066C9.12939 15.3573 9.0647 15.3066 9 15.2544C8.93506 15.3066 8.87036 15.3573 8.80591 15.4066C8.1958 15.8711 7.5708 16.2161 6.96704 16.3848C6.35986 16.5542 5.73657 16.5538 5.1897 16.2687C4.64258 15.9835 4.30176 15.4814 4.11768 14.8997C3.93457 14.3207 3.89331 13.6287 3.9646 12.8832C3.9812 12.7084 4.00415 12.5293 4.03345 12.3464C3.85229 12.2839 3.67773 12.2181 3.51025 12.149C2.79517 11.854 2.18237 11.4897 1.74048 11.059C1.29639 10.6261 1 10.0986 1 9.5C1 8.90125 1.29639 8.3739 1.74048 7.94092C2.18237 7.51025 2.79517 7.14587 3.51025 6.85095C3.67773 6.78186 3.85229 6.71594 4.03345 6.65356C4.00415 6.4707 3.9812 6.29163 3.9646 6.11682C3.89331 5.37134 3.93457 4.67932 4.11768 4.10046C4.30176 3.51855 4.64258 3.01648 5.1897 2.73132C5.73657 2.44617 6.35986 2.4458 6.96704 2.61536C7.57104 2.78394 8.1958 3.12891 8.80591 3.59351ZM8.28296 5.92126C8.52026 5.64148 8.76025 5.38257 9 5.14636C9.23975 5.38257 9.47974 5.64148 9.71704 5.92126C9.48071 5.91223 9.24146 5.90759 9 5.90759C8.75854 5.90759 8.51929 5.91223 8.28296 5.92126ZM9.78613 4.45203C10.251 4.9126 10.7092 5.44373 11.1462 6.03259C11.7764 6.10791 12.376 6.2157 12.9341 6.35217C12.95 6.24023 12.9629 6.13049 12.9731 6.02307C13.0364 5.35986 12.9919 4.81067 12.8618 4.39941C12.7327 3.99097 12.5322 3.75366 12.3022 3.63379C12.0723 3.51404 11.7563 3.48206 11.3301 3.60107C10.9009 3.72083 10.3987 3.98511 9.85596 4.39832L9.78613 4.45203ZM6.65527 8.27783C6.90869 7.82739 7.17676 7.401 7.45386 7.0022C7.9502 6.95764 8.46753 6.93396 9 6.93396C9.53247 6.93396 10.0496 6.95764 10.5459 7.0022C10.8232 7.401 11.0911 7.82739 11.3447 8.27783C11.5757 8.68811 11.7827 9.09705 11.9656 9.5C11.7827 9.90295 11.5757 10.3119 11.3447 10.7222C11.0911 11.1726 10.8232 11.599 10.5459 11.9977C10.0496 12.0422 9.53247 12.0659 9 12.0659C8.68433 12.0659 8.37402 12.0576 8.07031 12.0415C7.86157 12.0305 7.65601 12.0159 7.45386 11.9977C7.17676 11.599 6.90869 11.1726 6.65527 10.7222C6.42432 10.3119 6.21729 9.90295 6.03442 9.5C6.21729 9.09692 6.42432 8.68811 6.65527 8.27783ZM12.2827 7.78894C12.3542 7.91602 12.4236 8.04321 12.491 8.17029C12.5442 8.01123 12.5935 7.85425 12.6384 7.69934C12.6716 7.58557 12.7024 7.4729 12.731 7.36169C12.5959 7.32788 12.4578 7.2959 12.3167 7.26575C12.1897 7.23853 12.0603 7.21289 11.9287 7.18872C12.0496 7.38452 12.1675 7.58472 12.2827 7.78894ZM12.2825 11.2111C12.3542 11.084 12.4236 10.9568 12.491 10.8297C12.5835 11.1056 12.6636 11.3757 12.731 11.6383C12.4744 11.7024 12.2065 11.7603 11.9287 11.8112C12.0496 11.6155 12.1675 11.4153 12.2825 11.2111ZM13.1226 9.5C13.3855 10.1257 13.5955 10.7405 13.7502 11.3293C13.8196 11.3041 13.8877 11.2782 13.9546 11.252C13.9934 11.2367 14.0317 11.2212 14.0696 11.2056C14.7058 10.9432 15.1863 10.644 15.5002 10.338C15.812 10.0342 15.9333 9.75159 15.9333 9.5C15.9333 9.37183 15.9019 9.23572 15.8298 9.09277C15.7605 8.95508 15.6533 8.81104 15.5002 8.66187C15.1863 8.35583 14.7058 8.05664 14.0696 7.79443C13.9666 7.75183 13.8601 7.71057 13.7502 7.67065C13.5955 8.2594 13.3855 8.87427 13.1226 9.5ZM11.1462 12.9674C11.7764 12.8921 12.376 12.7843 12.9341 12.6478C12.95 12.7598 12.9629 12.8695 12.9731 12.9771C13.0029 13.2891 13.0088 13.5759 12.9932 13.8351C12.9756 14.1265 12.9307 14.3828 12.8618 14.6006C12.7327 15.009 12.5322 15.2463 12.3022 15.3662C12.0723 15.486 11.7563 15.5179 11.3301 15.3989C10.9009 15.2792 10.3987 15.0149 9.85596 14.6017L9.78613 14.5479C10.251 14.0874 10.7092 13.5563 11.1462 12.9674ZM9.24902 13.6002C9.16602 13.6874 9.08301 13.7719 9 13.8536C8.76025 13.6173 8.52026 13.3584 8.28296 13.0787C8.51929 13.0878 8.75854 13.0924 9 13.0924C9.24146 13.0924 9.48071 13.0878 9.71704 13.0787C9.56177 13.2616 9.40552 13.4355 9.24902 13.6002ZM5.71729 11.2111C5.83228 11.4153 5.95044 11.6155 6.07129 11.8112C5.79321 11.7603 5.52539 11.7024 5.2688 11.6383C5.33643 11.3756 5.41626 11.1056 5.50879 10.8297C5.55005 10.9073 5.59204 10.985 5.63477 11.0626C5.66187 11.1121 5.68945 11.1616 5.71729 11.2111ZM6.85376 12.9673C6.22363 12.892 5.62378 12.7843 5.06567 12.6478C5.05005 12.7598 5.03711 12.8695 5.02661 12.9771C4.96338 13.64 5.00781 14.1892 5.13818 14.6006C5.26733 15.009 5.46777 15.2463 5.69775 15.3662C5.92749 15.486 6.24365 15.5179 6.66968 15.3989C6.9541 15.3196 7.27075 15.1768 7.60962 14.9692C7.78223 14.8635 7.96069 14.7411 8.1438 14.6017L8.21362 14.5479C7.74878 14.0874 7.29053 13.5562 6.85376 12.9673ZM4.8772 9.5C4.61426 10.1257 4.4043 10.7405 4.24976 11.3293C4.13989 11.2893 4.03345 11.248 3.93042 11.2056C3.29419 10.9432 2.81372 10.644 2.49976 10.338C2.18799 10.0342 2.06665 9.75159 2.06665 9.5C2.06665 9.24841 2.18799 8.96582 2.49976 8.66187C2.81372 8.35583 3.29419 8.05664 3.93042 7.79443C4.03345 7.75183 4.13989 7.71057 4.24976 7.67065C4.4043 8.25952 4.61426 8.87427 4.8772 9.5ZM5.50879 8.17029C5.41626 7.89441 5.33643 7.62427 5.2688 7.36169C5.4563 7.31482 5.6499 7.27124 5.84888 7.23132C5.92212 7.21667 5.99634 7.20251 6.07129 7.18872C5.95044 7.38452 5.83228 7.58472 5.71729 7.78894C5.64575 7.91602 5.57617 8.04321 5.50879 8.17029ZM9 7.96045C8.11646 7.96045 7.3999 8.64966 7.3999 9.5C7.3999 10.3502 8.11646 11.0396 9 11.0396C9.88354 11.0396 10.6001 10.3502 10.6001 9.5C10.6001 8.64966 9.88354 7.96045 9 7.96045ZM8.46655 9.5C8.46655 9.21655 8.70557 8.98682 9 8.98682C9.29443 8.98682 9.53345 9.21655 9.53345 9.5C9.53345 9.78345 9.29443 10.0132 9 10.0132C8.70557 10.0132 8.46655 9.78345 8.46655 9.5Z" fill="#85AD85"/>
</svg>
