<svg width="18" height="19" viewBox="0 0 18 19" fill="none" xmlns="http://www.w3.org/2000/svg">
<path fill-rule="evenodd" clip-rule="evenodd" d="M9 18.5C13.9706 18.5 18 14.4706 18 9.5C18 4.52944 13.9706 0.5 9 0.5C4.02944 0.5 0 4.52944 0 9.5C0 14.4706 4.02944 18.5 9 18.5ZM12.7446 10.5673C13.0962 10.3953 13.516 10.2789 13.999 10.2764C15.2509 10.2688 15.9591 11.0807 15.9211 11.8242C15.8984 12.4059 15.3647 12.6436 15.2661 12.6613C15.1953 12.6714 15.1548 12.674 15.1447 12.6183C15.1371 12.5804 15.1649 12.5627 15.2484 12.5096C15.3319 12.4565 15.5848 12.2845 15.6303 11.9684C15.6758 11.6522 15.4381 10.9011 14.2343 10.7595C13.6728 10.6937 13.2327 10.7721 12.8913 10.9137C12.9545 11.0781 13.0001 11.2476 13.0077 11.4196C13.0228 11.7964 12.7623 12.0746 12.4917 12.2744C12.3324 12.3907 12.1655 12.4691 12.0239 12.5146C11.9126 12.5627 11.7608 12.6133 11.6546 12.5905C11.4194 12.5425 11.2955 12.3351 11.4548 11.8748C11.5433 11.6269 11.7912 11.2476 12.1933 10.9213C12.1767 10.8873 12.1598 10.8531 12.1428 10.8188C12.0663 10.6647 11.9894 10.5098 11.948 10.3649C11.8443 10.0159 11.8139 9.80602 11.8139 9.80602C11.8139 9.80602 11.4826 10.4914 11.0552 11.1161C11.0426 11.1338 11.0306 11.1515 11.0186 11.1692C11.0065 11.1869 10.9945 11.2046 10.9819 11.2223C11.0653 11.417 11.1336 11.6244 11.1412 11.8318C11.1564 12.2086 10.992 12.4944 10.7214 12.6942C10.5747 12.8029 10.4179 12.8763 10.2839 12.9243C10.1979 12.9623 10.0234 13.023 9.77553 13.0407C9.64149 13.0483 9.50998 13.0407 9.43664 12.985C9.33547 12.9092 9.32283 12.8156 9.37594 12.6866C9.41324 12.5975 9.64068 12.3285 9.87326 12.0533C9.92455 11.9926 9.9761 11.9317 10.0259 11.8723C10.0987 11.7878 10.1649 11.7011 10.2266 11.6203C10.2314 11.6141 10.2361 11.6078 10.2409 11.6016L10.2383 11.5991C10.2383 11.5991 10.2889 11.5359 10.3699 11.4221C10.3417 11.3615 10.3115 11.3003 10.2814 11.2391C10.2033 11.0807 10.1253 10.9224 10.0815 10.7746C9.97785 10.4256 9.9475 10.2157 9.9475 10.2157C9.9475 10.2157 9.61114 11.0756 9.26213 11.7635C8.99152 12.2971 8.80943 12.6183 8.7285 12.7599V12.765C8.7285 12.765 8.71586 12.7852 8.69562 12.8181C8.68551 12.8358 8.68045 12.8434 8.68045 12.8434V12.8409C8.5894 12.9749 8.38455 13.2379 8.18223 13.2379C7.62583 13.2379 7.83069 12.11 7.83069 12.11C7.83069 12.11 7.6663 12.5273 7.48421 12.8864C7.33499 13.1798 7.20095 13.4276 6.90252 13.4276C6.81654 13.4276 6.6825 13.4251 6.56869 13.3189C6.31325 13.0761 6.11852 12.459 6.15645 11.9835C6.1868 11.5789 6.25003 11.2982 6.33602 11.063C6.18427 11.1439 6.00724 11.2425 5.82768 11.3487C5.78215 11.3753 5.736 11.4025 5.68984 11.4297C5.64369 11.4569 5.59753 11.484 5.55201 11.5106C5.55707 11.5157 5.5596 11.5207 5.56213 11.5258C5.79227 11.9684 5.85297 12.9345 5.35474 13.678C4.85652 14.4215 3.92836 14.8717 3.02548 14.6213C2.73464 14.5404 2.29459 13.9385 2.67395 13.0988C3.00778 12.3578 4.34818 11.6573 4.69972 11.4828C4.70425 11.4803 4.70891 11.4778 4.71369 11.4752C4.73831 11.4618 4.76618 11.4466 4.79582 11.4297C4.61596 11.2724 4.36706 11.1012 4.09213 10.9119C3.29239 10.3615 2.27229 9.65949 2.08973 8.71093C2.02145 8.35181 2.18837 7.49446 3.24298 6.50813C4.13068 5.6786 5.36486 5.04128 6.50293 4.63663C8.41743 3.95631 10.4407 4.35843 10.7467 5.57744C11.0527 6.77874 10.0107 8.21271 8.67792 8.72864C7.48674 9.18893 6.50293 9.11558 6.09829 8.98407C5.64053 8.83486 5.36992 8.53137 5.30416 8.3594L5.30267 8.35551C5.27715 8.28925 5.23472 8.1791 5.30416 8.1419C5.34716 8.11661 5.36486 8.12419 5.4812 8.25065C5.59247 8.37204 6.03253 8.69576 6.87218 8.60219C9.07245 8.35434 10.4002 6.6447 9.98038 5.72412C9.68701 5.07921 7.99255 4.78837 5.86308 5.83793C3.27586 7.12775 3.13676 8.18995 3.114 8.5946C3.07206 9.36176 3.74254 9.87776 4.41624 10.3962C4.71754 10.6281 5.01949 10.8605 5.25864 11.1161C5.2637 11.1211 5.26876 11.1268 5.27381 11.1325C5.27887 11.1382 5.28393 11.1439 5.28899 11.1489C5.30885 11.1381 5.3289 11.1272 5.34911 11.1163C5.47556 11.0475 5.60797 10.9756 5.73663 10.9036C6.12863 10.6887 6.49535 10.4889 6.66732 10.3953C6.94046 10.0008 7.49179 9.56323 7.89138 9.56323C8.53123 9.56323 8.31121 10.4787 8.31121 10.4787C8.31121 10.4787 8.32385 10.4357 8.34156 10.4357C8.3451 10.4357 8.35077 10.4309 8.35915 10.4237C8.39267 10.395 8.46955 10.329 8.62734 10.3877C8.81017 10.454 8.79061 10.576 8.78515 10.6101C8.78456 10.6137 8.78414 10.6164 8.78414 10.6178C8.78498 10.6271 8.75892 10.7235 8.72003 10.8674C8.64211 11.1556 8.51273 11.6343 8.44525 11.9835C8.39719 12.2314 8.42501 12.4135 8.44019 12.4135C8.46042 12.4135 8.50089 12.3502 8.53882 12.282V12.2794C8.53882 12.2794 8.56664 12.2288 8.61469 12.1353C8.62228 12.1226 8.62481 12.115 8.62481 12.115C8.68045 12.0063 8.75885 11.847 8.8499 11.6472C9.02693 11.2577 9.70219 9.75038 9.76035 9.58346C9.79342 9.48857 9.8175 9.39204 9.83723 9.31293C9.85221 9.25288 9.86469 9.20287 9.87669 9.17122C9.90451 9.09788 10.1448 9.04224 10.423 9.04477C10.7012 9.0473 10.729 9.16616 10.7315 9.19145C10.7323 9.19962 10.7186 9.23969 10.6987 9.29803C10.6569 9.4204 10.5877 9.62317 10.5671 9.78072C10.542 9.97344 10.5585 10.0881 10.5793 10.2324C10.5836 10.2624 10.5881 10.2936 10.5924 10.327C10.6101 10.456 10.691 10.6178 10.7846 10.8025C11.0755 10.3295 11.5838 9.42666 11.6319 9.17375C11.6673 9.00178 11.7204 8.83486 11.7482 8.76152C11.776 8.68817 12.0163 8.63253 12.2945 8.63506C12.5727 8.63759 12.6005 8.75646 12.603 8.78175C12.6038 8.78991 12.5901 8.82998 12.5702 8.88832C12.5284 9.01069 12.4592 9.21347 12.4386 9.37102C12.4135 9.56374 12.43 9.67838 12.4508 9.82272C12.4551 9.85265 12.4596 9.88385 12.4639 9.91729C12.483 10.0575 12.5771 10.2405 12.6831 10.4469C12.7034 10.4862 12.724 10.5264 12.7446 10.5673ZM3.51612 13.8677C3.75638 14.0068 4.31277 13.8424 4.71236 13.4074C5.13219 12.9496 5.30416 12.3705 5.1246 11.7129L5.0639 11.7509C5.0639 11.7509 5.05379 11.7559 5.03608 11.766C4.97559 11.8029 4.92113 11.8355 4.87469 11.8633C4.84153 11.8831 4.81247 11.9005 4.78824 11.9152C4.5328 12.0746 4.14838 12.3351 3.84996 12.6158C3.35932 13.0761 3.25816 13.7185 3.51612 13.8677ZM7.5341 11.6513C7.56677 11.5662 7.59615 11.4897 7.62078 11.4297C7.70676 11.2172 8.04566 10.2764 7.97231 10.1474C7.91415 10.0488 7.67389 10.1297 7.45639 10.3725C7.32235 10.5243 7.0922 10.9137 6.98345 11.24C6.76848 11.89 6.86206 12.5475 7.0138 12.588C7.15949 12.6275 7.38226 12.047 7.5341 11.6513ZM9.88175 12.6133C9.90704 12.6284 9.96268 12.6082 10.0208 12.5779C10.1878 12.4716 10.5621 12.2111 10.5621 11.8242V11.7913C10.4851 11.8932 10.4122 11.9849 10.3488 12.0647C10.3413 12.0741 10.334 12.0833 10.3269 12.0923C10.208 12.239 9.90704 12.5627 9.90704 12.5627C9.90704 12.5627 9.86405 12.6031 9.88175 12.6133ZM11.9809 11.7079C11.8367 12.024 11.8291 12.1252 11.8721 12.1555C12.082 12.0796 12.431 11.8975 12.4336 11.4094C12.4361 11.3361 12.4184 11.2577 12.3931 11.1768C12.168 11.3766 12.0365 11.5839 11.9809 11.7079Z" fill="#85AD85"/>
</svg>
